<svg width="18" height="18" viewBox="0 0 18 18" fill="none" xmlns="http://www.w3.org/2000/svg">
<path d="M9.00108 6.50008C8.33804 6.50008 7.70215 6.76347 7.23331 7.23231C6.76447 7.70115 6.50108 8.33704 6.50108 9.00008C6.50108 9.66312 6.76447 10.299 7.23331 10.7678C7.70215 11.2367 8.33804 11.5001 9.00108 11.5001C9.66412 11.5001 10.3 11.2367 10.7688 10.7678C11.2377 10.299 11.5011 9.66312 11.5011 9.00008C11.5011 8.33704 11.2377 7.70115 10.7688 7.23231C10.3 6.76347 9.66412 6.50008 9.00108 6.50008ZM9.00108 4.83341C10.1061 4.83341 11.166 5.2724 11.9474 6.0538C12.7288 6.8352 13.1677 7.89501 13.1677 9.00008C13.1677 10.1052 12.7288 11.165 11.9474 11.9464C11.166 12.7278 10.1061 13.1667 9.00108 13.1667C7.89601 13.1667 6.8362 12.7278 6.0548 11.9464C5.2734 11.165 4.83441 10.1052 4.83441 9.00008C4.83441 7.89501 5.2734 6.8352 6.0548 6.0538C6.8362 5.2724 7.89601 4.83341 9.00108 4.83341ZM14.4177 4.62508C14.4177 4.90135 14.308 5.1663 14.1126 5.36165C13.9173 5.557 13.6523 5.66675 13.3761 5.66675C13.0998 5.66675 12.8349 5.557 12.6395 5.36165C12.4442 5.1663 12.3344 4.90135 12.3344 4.62508C12.3344 4.34881 12.4442 4.08386 12.6395 3.88851C12.8349 3.69316 13.0998 3.58341 13.3761 3.58341C13.6523 3.58341 13.9173 3.69316 14.1126 3.88851C14.308 4.08386 14.4177 4.34881 14.4177 4.62508ZM9.00108 2.33341C6.93941 2.33341 6.60274 2.33925 5.64358 2.38175C4.99024 2.41258 4.55191 2.50008 4.14524 2.65841C3.80492 2.78336 3.49725 2.98363 3.24524 3.24425C2.98442 3.49625 2.78387 3.8039 2.65858 4.14425C2.50024 4.55258 2.41274 4.99008 2.38274 5.64258C2.33941 6.56258 2.33358 6.88425 2.33358 9.00008C2.33358 11.0626 2.33941 11.3984 2.38191 12.3576C2.41274 13.0101 2.50024 13.4492 2.65774 13.8551C2.79941 14.2176 2.96608 14.4784 3.24274 14.7551C3.52358 15.0351 3.78441 15.2026 4.14274 15.3409C4.55441 15.5001 4.99274 15.5884 5.64274 15.6184C6.56274 15.6617 6.88441 15.6667 9.00024 15.6667C11.0627 15.6667 11.3986 15.6609 12.3577 15.6184C13.0094 15.5876 13.4477 15.5001 13.8552 15.3426C14.1953 15.217 14.5028 15.0168 14.7552 14.7567C15.0361 14.4767 15.2036 14.2159 15.3419 13.8567C15.5002 13.4467 15.5886 13.0084 15.6186 12.3567C15.6619 11.4376 15.6669 11.1151 15.6669 9.00008C15.6669 6.93841 15.6611 6.60175 15.6186 5.64258C15.5877 4.99091 15.4994 4.55091 15.3419 4.14425C15.2163 3.80426 15.0161 3.49673 14.7561 3.24425C14.5042 2.98329 14.1965 2.78272 13.8561 2.65758C13.4477 2.49925 13.0094 2.41175 12.3577 2.38175C11.4386 2.33841 11.1169 2.33341 9.00024 2.33341M9.00024 0.666748C11.2644 0.666748 11.5469 0.675081 12.4361 0.716748C13.3227 0.758415 13.9277 0.897581 14.4586 1.10425C15.0086 1.31591 15.4719 1.60258 15.9352 2.06508C16.359 2.48166 16.6869 2.98557 16.8961 3.54175C17.1019 4.07258 17.2419 4.67758 17.2836 5.56508C17.3227 6.45341 17.3336 6.73591 17.3336 9.00008C17.3336 11.2642 17.3252 11.5467 17.2836 12.4351C17.2419 13.3226 17.1019 13.9267 16.8961 14.4584C16.6875 15.0149 16.3595 15.5189 15.9352 15.9351C15.5185 16.3587 15.0147 16.6865 14.4586 16.8959C13.9277 17.1017 13.3227 17.2417 12.4361 17.2834C11.5469 17.3226 11.2644 17.3334 9.00024 17.3334C6.73608 17.3334 6.45358 17.3251 5.56441 17.2834C4.67774 17.2417 4.07358 17.1017 3.54191 16.8959C2.98552 16.6871 2.48152 16.3592 2.06524 15.9351C1.64144 15.5186 1.31354 15.0146 1.10441 14.4584C0.897744 13.9276 0.758577 13.3226 0.716911 12.4351C0.676911 11.5467 0.666911 11.2642 0.666911 9.00008C0.666911 6.73591 0.675244 6.45341 0.716911 5.56508C0.758577 4.67758 0.897744 4.07341 1.10441 3.54175C1.31294 2.98523 1.64091 2.48118 2.06524 2.06508C2.48164 1.64111 2.9856 1.31319 3.54191 1.10425C4.07274 0.897581 4.67691 0.758415 5.56441 0.716748C6.45441 0.677581 6.73691 0.666748 9.00108 0.666748" fill="white"/>
</svg>
